<svg xmlns="http://www.w3.org/2000/svg" width="256mm" height="256mm" viewBox="0 0 256 256"><defs><clipPath id="a" clipPathUnits="userSpaceOnUse"><path d="M0 504h504V0H0z"/></clipPath></defs><g style="display:inline"><g clip-path="url(#a)" transform="matrix(.61223 0 0 -.61223 -26.282 282.279)"><g style="display:inline"><path d="M0 0c-114.776 0-207.826-93.049-207.826-207.827 0-114.766 93.05-207.827 207.826-207.827s207.816 93.061 207.816 207.827C207.816-93.049 114.776 0 0 0" style="fill:#fff;fill-opacity:1;fill-rule:nonzero;stroke:none" transform="translate(252.005 459.827)"/></g><path d="M0 0c-113.906 0-206.576-92.67-206.576-206.577 0-113.906 92.67-206.577 206.576-206.577 113.9 0 206.566 92.671 206.566 206.577C206.566-92.67 113.9 0 0 0m0-415.654c-115.284 0-209.076 93.791-209.076 209.077C-209.076-91.292-115.284 2.5 0 2.5c115.279 0 209.066-93.792 209.066-209.077 0-115.286-93.787-209.077-209.066-209.077" style="fill:#b58a43;fill-opacity:1;fill-rule:nonzero;stroke:none" transform="translate(252.005 458.577)"/><g style="display:inline"><path d="M0 0c-109.254 4.766-201.715-79.934-206.482-189.209-4.758-109.255 79.944-201.706 189.202-206.457 109.262-4.781 201.711 79.931 206.479 189.184C193.967-97.218 109.265-4.771 0 0" style="display:inline;fill:#002e79;fill-opacity:1;fill-rule:nonzero;stroke:none" transform="translate(260.641 449.903)"/></g><g style="display:inline"><path d="M0 0c-74.596 0-135.084-60.471-135.084-135.093 0-74.599 60.488-135.073 135.084-135.073 74.613 0 135.084 60.474 135.084 135.073C135.084-60.471 74.613 0 0 0" style="display:inline;fill:#fff;fill-opacity:1;fill-rule:nonzero;stroke:none" transform="translate(252.005 387.151)"/></g><path d="M0 0c-68.857 0-124.876-56.019-124.876-124.876 0-68.862 56.019-124.887 124.876-124.887 68.856 0 124.874 56.025 124.874 124.887C124.874-56.019 68.856 0 0 0m0-252.263c-70.235 0-127.376 57.146-127.376 127.387C-127.376-54.64-70.235 2.5 0 2.5c70.236 0 127.374-57.14 127.374-127.376 0-70.241-57.138-127.387-127.374-127.387" style="fill:#b58a43;fill-opacity:1;fill-rule:nonzero;stroke:none" transform="translate(252.005 376.978)"/><path d="m0 0-2.113-7.886-7.886 2.115 2.114 7.885z" style="fill:#fff;fill-opacity:1;fill-rule:nonzero;stroke:none" transform="translate(112.447 171.607)"/><path d="M0 0c-1.327 4.114-3.064 4.702-5.505 3.914C-8.851 2.835-9.503.676-8.569-2.217c.145-.452.251-.466.411-.964 1.114.11 2.167.4 4.654 1.201L6.848 1.36c3.662 1.182 4.461 1.34 3.643 3.872-1.21 3.752-3.152 4.973-6.316 3.953C.874 8.118-1.003 4.966 1.04.335 1.084.2.044-.137 0 0m13.026 1.706c.628-1.943 1.342-4.159 1.975-5.502.191-.437-.8-.457-.844-.322-1.28 2.883-1.968 3.158-6.263 1.774L-2.323-5.642c-4.294-1.384-4.691-2.012-4.09-5.112.044-.137-.833-.669-.888-.188-.212 1.43-.737 3.056-1.379 5.046-.263.815-1.112 2.986-1.477 4.116-1.241 3.843-.569 7.952 2.821 9.046 1.899.613 4.562-.525 6.162-2.854-1.028 3.962.37 7.209 3.309 8.156 3.797 1.226 7.979-1.369 9.641-6.523.365-1.13.973-3.479 1.25-4.339" style="fill:#fff;fill-opacity:1;fill-rule:nonzero;stroke:none" transform="translate(92.585 199.402)"/><path d="M0 0c.686-.09 2.063.02 4.6.395l5.638.84c-.062.423-.058.711-.148 1.321-.692 4.654-2.75 6.221-5.945 5.745C.198 7.715-.876 5.249-.269 1.162-.192.645-.123.51 0 0m11.445 2.807c.105-.705.14-.94.157-1.369l3.946.586c4.229.63 5.026 1.084 4.833 4.321-.021.139.951.381.9.085.019-1.101.328-3.505.551-5.009.308-2.068.651-4.37 1.062-5.845.136-.269-.872-.273-.893-.132-.783 3.005-1.431 3.484-5.894 2.82L5.488-3.313C1.4-3.921.619-4.807.863-6.45c.056-.376.166-.791.337-1.294.122-.176-.736-.542-.825-.269-.694 1.436-1.503 5.589-2.076 9.441-.943 6.343.574 10.027 4.334 10.586 2.349.349 4.902-1.001 6.489-3.599 4.515 2.593 10.335 8.021 9.727 12.11-.021.142.851.415.892.132 1.146-7.706-3.655-12.886-8.969-15.262.267-.825.568-1.884.673-2.588" style="fill:#fff;fill-opacity:1;fill-rule:nonzero;stroke:none" transform="translate(77.612 223.087)"/><path d="M0 0c.012-2.136.024-4.417.223-5.935.098-.381-.902-.149-.902-.054-.35 3.135-.97 3.606-5.436 3.582l-10.736-.061c-4.513-.025-5.127-.503-5.442-3.641 0-.095-.948-.29-.903.088.23 1.475.216 3.755.204 5.894-.007 1.424-.116 3.894-.265 4.985-.05.38.902.196.902.1.257-3.276 1.255-3.602 5.484-3.579l10.734.06c4.229.024 5.13.361 5.396 3.64 0 .095.948.291.903-.089C.026 3.896-.007 1.426 0 0" style="fill:#fff;fill-opacity:1;fill-rule:nonzero;stroke:none" transform="translate(97.065 251.656)"/><path d="M0 0c1.214-3.335 1.814-6.249 1.321-9.778-1.135-8.14-7.289-12.364-13.405-11.511-6.445.9-11.827 7.358-10.698 15.45.465 3.34 2.577 6.787 3.228 7.32.274.25 3.331.158 5.516-.339.235-.032.016-.913-.078-.899-2.802.199-6.657-2.333-7.333-7.179-.735-5.27 2.247-9.331 8.599-10.217C-5.18-18.224-.834-14.225-.124-9.144c.511 3.669-.304 4.359-.795 4.619-.356.194-1.426.439-2.226.55-4.516.63-4.725.515-5.532-3.209-.019-.14-.98-.15-.893.125.35 1.486.813 4.107 1.101 6.178.204 1.458.451 3.582.462 4.683-.055.296.873.071.854-.07C-7.318.493-6.895.433-2.424-.191-1.39-.335-.583-.399 0 0" style="fill:#fff;fill-opacity:1;fill-rule:nonzero;stroke:none" transform="translate(98.136 284.79)"/><path d="M0 0c-.033-.239-.899.164-.852.298.593 2.711.137 3.423-4.035 4.878l-4.575 1.595-4.192-12.021 4.576-1.596c3.947-1.377 5.014-1.346 6.177 1.267.047.135 1.02-.103.837-.341-.511-1.031-1.243-2.989-1.743-4.423-.673-1.929-1.55-4.441-1.871-5.939-.003-.3-.898.163-.852.297.785 3.55.447 4.02-3.814 5.506l-10.138 3.534c-4.262 1.486-4.909 1.36-6.457-1.925-.046-.134-1.02.106-.836.343.709 1.313 1.585 3.824 2.257 5.752.501 1.436 1.099 3.442 1.339 4.564.005.301.916-.117.868-.252-.714-2.769.104-3.456 4.096-4.849l4.261-1.485 4.191 12.021-4.262 1.486c-4.216 1.47-5.061 1.211-6.236-1.297-.048-.134-1.021.104-.897.313.709 1.312 1.425 3.226 2.098 5.155.516 1.48 1.334 4.112 1.559 5.191.004.301.946-.028.868-.252-.951-3.593-.161-4.069 3.876-5.476l10.138-3.535c4.036-1.408 4.862-1.495 6.395 1.895.078.224 1.02-.105.837-.342-.494-.984-1.446-3.571-1.963-5.051C.978 3.383.321 1.498 0 0" style="fill:#fff;fill-opacity:1;fill-rule:nonzero;stroke:none" transform="translate(106.889 306.153)"/><path d="m0 0 3.319 5.708-8.379 1.465zm12.148.573c-.061-.295-.852.33-.78.454.647 1.491 1.354 2.235.532 2.712-.943.549-2.609.803-4.479 1.177l-2.607.527L.945-1.21l1.627-2.211c1.354-1.83 2.282-2.974 3.103-3.451.698-.407 1.152.373 2.039 1.616.119.205.982-.296.757-.495-.673-.873-1.455-2.121-2.218-3.436-1.027-1.765-1.194-2.053-1.818-3.503-.103-.271-.852.329-.78.453 1.029 2.149.542 3.861-2.001 7.428L-9.288 10.676c-.158.202.04.636.334.575L9.392 8.496c3.649-.529 5.503-.837 7.468 1.975.072.124.982-.295.757-.494-.697-.914-1.764-2.657-2.552-4.011-1.027-1.765-2.317-3.983-2.917-5.393" style="fill:#fff;fill-opacity:1;fill-rule:nonzero;stroke:none" transform="translate(107.14 331.312)"/><path d="M0 0c-.118-.277-.801.458-.706.564C.913 2.811.732 3.608-2.635 6.542l-9.46 8.162 8.613-18.475c.115-.228-.268-.587-.473-.532L-23.558 1.25l8.923-8.195c2.843-2.592 3.99-3.232 6.351-1.008.094.106.902-.486.642-.636-.832-.721-1.721-1.648-2.73-2.783-1.359-1.526-2.37-2.663-3.238-3.925-.118-.276-.769.495-.675.601 1.836 2.563 1.407 3.581-1.582 6.368L-25.043.155c-1.21 1.14-3.596 1.102-5.609-.731-.095-.106-.899.418-.64.567 1.41 1.227 3.052 3.073 5.293 5.592L-6.986.366l-5.277 10.863c-1.147 2.356-2.087 4.656-3.192 6.275 1.685 1.679 4.046 4.475 5.006 5.91.118.276.765-.426.702-.498-2.246-3.024-1.765-3.769 1.491-6.54l8.147-6.995c3.257-2.771 4.116-3.092 6.762-.548.094.106.902-.486.642-.636-.864-.757-2.7-2.748-3.71-3.884C2.163 2.716.869 1.261 0 0" style="fill:#fff;fill-opacity:1;fill-rule:nonzero;stroke:none" transform="translate(139.797 358.936)"/><path d="m0 0 2.945-4.601c2.713-4.242 3.084-4.117 5.959-2.616.12.076.737-.713.447-.786-1.038-.494-3.064-1.735-4.345-2.554-1.8-1.152-3.722-2.381-4.9-3.36-.188-.233-.605.683-.485.76 2.396 1.984 2.923 2.04.083 6.482l-2.638 4.121-5.343 2.446c-5.683 2.625-6.813 2.805-9.488 1.431-.119-.077-.777.687-.486.761 1.384.659 2.944 1.657 4.704 2.784 1.28.819 3.216 2.113 4.06 2.822.188.233.646-.657.526-.735-2.473-1.864-1.492-2.251 4.022-4.7L-1.462.701l.25 4.896c.31 5.951-.007 5.917-2.627 4.636-.121-.077-.818.66-.447.785 1.343.634 2.624 1.454 4.384 2.58 1.28.819 2.056 1.371 2.899 2.079.189.235.647-.657.526-.734C1.05 13.079.689 12.058.371 6.384z" style="fill:#fff;fill-opacity:1;fill-rule:nonzero;stroke:none" transform="translate(164.241 393.842)"/><path d="M0 0c2.932-7.217 9.074-9.081 13.474-7.292 4.71 1.912 6.962 6.212 4.566 12.109-2.932 7.218-9.153 9.152-13.554 7.363C-.223 10.267-2.413 5.941 0 0m-3.125-2.91c-2.45 6.03.587 13.827 7.805 16.759 6.778 2.754 14.054-.392 16.397-6.157 2.431-5.985-.561-13.765-7.822-16.715-6.734-2.736-14.037.348-16.38 6.113" style="fill:#fff;fill-opacity:1;fill-rule:nonzero;stroke:none" transform="translate(180.597 404.218)"/><path d="M0 0c.924-4.756-1.886-9.464-8.135-10.679-5.409-1.052-10.687 1.454-11.775 7.05l-1.596 8.206c-.862 4.43-1.492 4.937-4.596 4.721-.14-.028-.414.886-.116.848 1.49.048 3.719.53 5.818.938 1.492.29 3.814.79 4.907 1.147.261.148.443-.784.21-.83-3.117-.896-3.216-1.883-2.4-6.08l1.443-7.415c1.06-5.455 5.075-7.191 8.667-6.493 4.709.917 6.69 3.915 5.757 8.719L-3.43 8.431c-.78 4.01-1.429 4.611-4.533 4.393-.243.002-.415.888-.117.849 1.492.049 2.555.304 4.607.703 1.446.281 2.975.626 4.02.976.364.118.35-.804.256-.822-3.162-.906-3.243-1.986-2.508-5.763z" style="fill:#fff;fill-opacity:1;fill-rule:nonzero;stroke:none" transform="translate(231.035 414.515)"/><path d="M0 0c-.012-1.758.01-4.988.188-6.51 0-.143-.571-.329-.855-.04l-17.582 18.137-.087-11.448c-.028-3.8.294-5.133 3.569-5.443.095 0 .182-.998-.101-.902-1.093.151-2.374.209-3.847.219-2.089.017-3.61.027-5.131-.151-.238-.045-.136.905.006.904 3.138.308 3.62 1.35 3.652 5.386l.092 12.209c.012 1.615-2.964 3.823-4.577 4.026-.143.001-.231.998.054.902 1.471-.249 4.226-.318 6.268-.333L-1.902-.319l.083 11.069c.032 4.085-.437 5.134-3.521 5.49-.236.049-.229.999.054.902 1.423-.249 2.61-.257 4.703-.273 1.518-.012 3.134.071 4.179.205.476.044.232-.903.137-.903C.405 15.958.11 14.536.08 10.735z" style="fill:#fff;fill-opacity:1;fill-rule:nonzero;stroke:none" transform="translate(264.174 413.366)"/><path d="M0 0c-3.398-1.022-6.34-1.456-9.836-.764-8.062 1.597-11.929 7.98-10.73 14.038 1.264 6.383 8.017 11.39 16.033 9.803 3.308-.655 6.628-2.959 7.124-3.638.234-.289-.03-3.335-.65-5.489-.046-.233-.913.036-.896.129.359 2.786-1.951 6.778-6.75 7.729-5.22 1.034-9.444-1.714-10.689-8.004C-17.898 6.207-14.153 1.641-9.121.645c3.635-.721 4.37.055 4.658.529.213.346.518 1.399.677 2.192.883 4.473.781 4.687-2.891 5.705-.139.027-.095.986.176.885 1.462-.434 4.052-1.045 6.103-1.451 1.446-.286 3.552-.655 4.651-.727.298.038.02-.876-.12-.848C.911 7.278.828 6.858-.051 2.432-.254 1.406-.364.605 0 0" style="fill:#fff;fill-opacity:1;fill-rule:nonzero;stroke:none" transform="translate(293.563 404.167)"/><path d="M0 0c-2.151-4.342-7.241-6.382-12.944-3.558-4.939 2.443-7.617 7.638-5.088 12.748l3.708 7.492c2.002 4.045 1.807 4.831-.793 6.541-.127.062.21.955.422.744 1.216-.865 3.279-1.834 5.196-2.783 1.362-.674 3.513-1.684 4.597-2.063.298-.04-.125-.892-.337-.787-3.02 1.178-3.699.453-5.593-3.379l-3.352-6.77c-2.464-4.982-.325-8.797 2.954-10.419 4.301-2.128 7.695-.946 9.865 3.44l3.75 7.578c1.812 3.663 1.661 4.533-.94 6.242-.19.149.21.957.423.745 1.213-.865 2.214-1.308 4.086-2.235 1.322-.653 2.747-1.306 3.79-1.662.361-.126-.208-.851-.293-.808-3.064 1.197-3.784.388-5.491-3.062z" style="fill:#fff;fill-opacity:1;fill-rule:nonzero;stroke:none" transform="translate(333.888 394.089)"/><path d="M0 0c-1.079-1.388-3.023-3.97-3.804-5.287-.088-.112-.654.087-.705.487l-2.957 25.087-7.019-9.044c-2.332-3.002-2.883-4.257-.469-6.491.074-.058-.461-.904-.63-.655-.774.782-1.76 1.606-2.922 2.509-1.65 1.282-2.852 2.214-4.17 2.996-.217.109.442.801.554.713 2.681-1.66 3.697-1.126 6.172 2.064l7.486 9.645c.991 1.275-.032 4.837-1.192 5.976-.112.089.422.934.591.685 1.018-1.091 3.164-2.818 4.778-4.071L-1.707.902l6.788 8.744c2.505 3.228 2.77 4.344.534 6.5-.156.183.425.934.591.684.981-1.062 1.919-1.79 3.572-3.072 1.198-.932 2.534-1.846 3.447-2.375.403-.254-.366-.859-.442-.801-2.771 1.852-3.872.901-6.201-2.102z" style="fill:#fff;fill-opacity:1;fill-rule:nonzero;stroke:none" transform="translate(359.545 373.06)"/><path d="M0 0c-1.46 1.561-3.018 3.226-4.194 4.207-.33.212.561.72.627.651C-1.182 2.796-.408 2.87 2.854 5.921l7.842 7.332c3.296 3.083 3.423 3.851 1.523 6.368-.063.069.501.857.725.547.833-1.237 2.391-2.904 3.85-4.465.972-1.04 2.73-2.78 3.58-3.48.295-.245-.53-.756-.594-.686-2.412 2.231-3.369 1.793-6.457-1.095l-7.84-7.333C2.395.222 1.963-.637 3.994-3.226c.064-.07-.5-.857-.725-.547C2.627-2.879.974-1.041 0 0" style="fill:#fff;fill-opacity:1;fill-rule:nonzero;stroke:none" transform="translate(365.888 357.802)"/><path d="M0 0c-.144-.042-.547.371-.396.652l9.822 15.986c2.222 3.629 2.727 5.313 1.294 7.787-.082.117.655.804.74.516.535-1.016 1.678-2.825 2.519-4.034 1.194-1.715 2.689-3.859 3.697-4.893.242-.179-.54-.722-.713-.555-1.052 1.178-1.645 1.865-2.424 1.322-.547-.381-1.453-1.242-2.754-3.364L5.115 2.464l12.561 2.494c2.834.584 3.462.848 4.165 1.336.662.461.461 1.249-.318 2.616-.08.117.657.805.74.516.508-.978 1.272-2.241 2.141-3.489 1.221-1.753 1.411-2.026 2.446-3.099.242-.179-.629-.671-.712-.555-1.47 1.696-3.1 2.125-7.59 1.256z" style="fill:#fff;fill-opacity:1;fill-rule:nonzero;stroke:none" transform="translate(379.826 339.736)"/><path d="M0 0c-.576 1.199-1.372 3.293-2.524 5.691-1.563 3.254-3.435 7.151-4.759 9.467-.124.256.752.518.813.39 1.948-3.069 2.522-3.163 6.59-1.208l9.677 4.648c4.068 1.954 4.436 2.501 3.216 5.919-.061.129.776.69.857.412.937-2.5 2.705-6.289 4.267-9.544 1.111-2.312 2.268-4.497 3.384-6.384-.786-.116-1.687-.548-2.329-.856-.342-.165-1.304-.575-1.499-.72-.086-.042-.518.752-.432.793 1.289.935 1.728 1.779-.269 5.932l-1.335 2.783c-.791-.221-2.01-.754-4.024-1.721L7.695 13.71l1.028-2.141c1.729-3.596 1.936-3.813 3.472-3.498.085.042.52-.752.286-.812-.535-.097-1.883-.692-2.61-1.042-.386-.184-1.541-.74-1.841-.884-.003-.106-.476.773-.435.792 1.526 1.103 1.531 1.421-.114 4.847l-1.028 2.141-4.238-2.036c-4.112-1.975-4.395-2.375-3.694-3.83l.8-1.67C1.687.653 2.434.853 4.758 1.39c.044.021.454-.836.328-.897C4.209.231 1.946-.435 1.201-.53.498-.709.266-.557 0 0" style="fill:#fff;fill-opacity:1;fill-rule:nonzero;stroke:none" transform="translate(395.377 312.177)"/><path d="M0 0c-.691-.006-2.039-.306-4.5-1.034L-9.966-2.65c.122-.41.159-.697.332-1.289 1.336-4.509 3.591-5.774 6.69-4.859C.881-7.666 1.602-5.076.43-1.112.281-.61.195-.488 0 0m-10.94-4.375c-.203.682-.271.911-.347 1.334l-3.825-1.131c-4.1-1.212-4.827-1.774-4.182-4.953.039-.137-.889-.51-.879-.21-.174 1.088-.816 3.424-1.248 4.882-.591 2.004-1.252 4.237-1.865 5.641-.171.246.825.393.867.256 1.194-2.867 1.901-3.252 6.23-1.973l10.293 3.045c3.965 1.173 4.614 2.157 4.143 3.751a7.526 7.526 0 0 1-.515 1.236c-.144.155.654.639.781.379C-.6 6.559.781 2.559 1.885-1.177c1.818-6.15.83-10.008-2.815-11.086-2.278-.674-4.995.306-6.929 2.656-4.106-3.196-9.114-9.382-7.942-13.346.042-.137-.784-.529-.864-.255-2.21 7.471 1.821 13.269 6.753 16.362-.381.78-.828 1.787-1.028 2.471" style="fill:#fff;fill-opacity:1;fill-rule:nonzero;stroke:none" transform="translate(421.161 305.144)"/><path d="M0 0c.115.207 2.769.433 5.283.638.235.033.259-.826.164-.84C1.912-.982-.649-3.257-.139-6.926c.354-2.541 2.102-4.073 4.36-3.758 5.882.818 4.441 11.17 10.886 12.066 3.247.451 6.993-2 7.596-6.328.288-2.071-.142-3.473-.676-4.795-.149-.309-2.027-.954-4.424-1.287-.142-.021-.274.92-.132.94 2.529.784 4.082 2.727 3.728 5.267-.308 2.212-1.619 3.708-3.784 3.407-5.647-.786-4.09-10.928-10.867-11.872-3.858-.536-7.617 2.009-8.24 6.479C-2.051-4.219-1.296-2.052 0 0" style="fill:#fff;fill-opacity:1;fill-rule:nonzero;stroke:none" transform="translate(406.874 280.72)"/><path d="M0 0c-.037 2.137-.073 4.418-.291 5.934-.1.378.901.159.904.063.383-3.129 1.011-3.593 5.473-3.518l10.736.182c4.511.076 5.121.562 5.399 3.703 0 .094.948.3.906-.081-.212-1.476-.173-3.756-.139-5.894.024-1.424.161-3.892.322-4.981.054-.381-.898-.208-.901-.112-.293 3.274-1.296 3.589-5.522 3.517L6.152-1.368C1.926-1.439 1.028-1.787.798-5.071c.003-.092-.945-.3-.903.081C.02-3.894.024-1.424 0 0" style="fill:#fff;fill-opacity:1;fill-rule:nonzero;stroke:none" transform="translate(407.394 254.431)"/><path d="M0 0c-.142.017.01.859.105.85 1.597.136 2.832 1.227 3.301 4.997l.385 3.113-14.943 1.855c-4.195.52-5.127.347-5.818-2.917-.017-.142-.972-.117-.879.254.276 1.067.622 3.464.808 4.973.251 2.026.54 4.336.532 5.82-.046.391.918.078.901-.063-.056-3.152.498-3.699 4.929-4.248l14.944-1.856.41 3.301c.452 3.628-.41 5.171-2.002 5.847-.024.196.064.903.201.838.734-.235 2.514-.552 3.505-.674.376-.047 1.084-.134 1.863-.039.147.029.088-.825-.058-.855-1.167-.144-1.226-.232-1.858-5.322L5.056 5.645C4.431.598 4.402.364 5.544-.066c.137-.064-.021-.954-.2-.837-.73.283-1.943.53-3.123.676C1.655-.156.476-.012 0 0" style="fill:#fff;fill-opacity:1;fill-rule:nonzero;stroke:none" transform="translate(423.166 218.992)"/><path d="m0 0-5.227 1.592c-4.817 1.467-5.017 1.13-6.23-1.875-.042-.137-1.026.063-.85.308.466 1.049 1.203 3.308 1.648 4.76.623 2.046 1.287 4.226 1.548 5.738-.007.3.903-.127.861-.264-.534-3.064-.9-3.45 4.143-4.985L.576 3.848l5.652 1.606c6.028 1.69 7.002 2.288 8.147 5.069.042.134 1.038-.02.864-.264-.625-1.399-1.164-3.171-1.772-5.171-.445-1.455-1.077-3.694-1.257-4.783.007-.3-.921.083-.879.218.673 3.025-.325 2.683-6.111.966L1.568.418l2.985-3.89C8.179-8.201 8.398-7.969 9.56-5.293c.042.137 1.053.027.85-.307-.61-1.355-1.052-2.808-1.663-4.808-.441-1.455-.673-2.378-.854-3.464.007-.3-.92.081-.879.217.674 3.023.286 4.036-3.154 8.557z" style="fill:#fff;fill-opacity:1;fill-rule:nonzero;stroke:none" transform="translate(411.178 201.477)"/><path d="m0 0 7.893 2.083 2.083-7.894-7.893-2.082z" style="fill:#fff;fill-opacity:1;fill-rule:nonzero;stroke:none" transform="translate(391.72 171.06)"/><path d="M0 0c-.096.105.536.681.632.576L.919.259C3.128-2.163 5.907-2.393 8.716.166c2.668 2.432 2.652 4.988.445 7.41-.223.246-.838.778-1.192 1.098-.933-.527-1.706-1.233-3.672-3.022L-3.637-1.58c-3.161-2.878-3.601-3.667-1.636-6.245.096-.105-.578-.847-.698-.573-.632.903-2.228 2.726-3.251 3.849-1.409 1.546-2.945 3.231-4.108 4.227-.327.217.571.713.667.607 2.357-2.094 3.099-2.06 6.434.979l7.934 7.229c3.301 3.008 3.438 3.775 1.607 6.348-.095.108.447.923.632.576.884-1.25 2.035-2.514 3.411-4.023.576-.632 2.345-2.363 3.209-3.311 3.231-3.547 4.038-7.888 1.265-10.415C8.739-5.146 4.062-4.46.32-.352.192-.21.063-.071 0 0" style="fill:#fff;fill-opacity:1;fill-rule:nonzero;stroke:none" transform="translate(127 138.284)"/><path d="M0 0c-.562-.403-1.491-1.426-3.082-3.438l-3.538-4.47c.336-.263.53-.478 1.014-.862 3.688-2.917 6.261-2.651 8.265-.119C5.134-5.759 4.231-3.228.99-.662.58-.339.439-.288 0 0m-6.424-9.88c-.559.444-.744.59-1.051.893l-2.475-3.13c-2.653-3.352-2.922-4.228-.567-6.457.113-.088-.432-.931-.596-.679-.768.791-2.638 2.332-3.831 3.274-1.639 1.296-3.464 2.742-4.774 3.535-.283.103.448.796.56.708 2.627-1.655 3.428-1.562 6.228 1.978l6.66 8.418c2.565 3.242 2.528 4.421 1.225 5.451-.298.237-.663.464-1.132.716-.207.041.166.898.42.756C-4.271 5.014-.838 2.539 2.217.122c5.029-3.977 6.444-7.703 4.087-10.681-1.475-1.863-4.259-2.627-7.194-1.819-1.516-4.98-2.045-12.92 1.196-15.483.111-.091-.337-.887-.56-.708-6.11 4.831-6.155 11.894-3.906 17.263-.76.42-1.704.984-2.264 1.426" style="fill:#fff;fill-opacity:1;fill-rule:nonzero;stroke:none" transform="translate(152.475 130.43)"/><path d="M0 0c-3.572-6.924-.99-12.798 3.232-14.976 4.517-2.329 9.247-1.242 12.165 4.414 3.571 6.924.991 12.906-3.232 15.083C7.649 6.851 2.939 5.698 0 0m-4.243.479c2.983 5.783 10.877 8.552 17.801 4.98 6.502-3.352 8.85-10.923 5.998-16.455-2.962-5.74-10.815-8.53-17.781-4.939C-4.684-12.603-7.096-5.051-4.243.479" style="fill:#fff;fill-opacity:1;fill-rule:nonzero;stroke:none" transform="translate(167.835 108.277)"/><path d="M0 0c-.085-.124-.659-.053-.715.261l-2.343 18.613c-.54 4.222-1.199 5.85-3.866 6.883-.137.042.009 1.037.255.867 1.054-.459 3.077-1.155 4.49-1.57 2.005-.591 4.511-1.328 5.945-1.504.3.012.032-.901-.21-.879-1.557.261-2.45.425-2.717-.486-.188-.639-.356-1.877-.043-4.345L2.449 5.122l8.236 9.805c1.844 2.231 2.169 2.827 2.411 3.647.228.777-.421 1.265-1.884 1.843-.136.04.007 1.038.254.867 1.009-.446 2.394-.954 3.853-1.382 2.049-.605 2.369-.698 3.848-.886.301.01-.073-.92-.209-.879-2.209.403-3.748-.283-6.706-3.769z" style="fill:#fff;fill-opacity:1;fill-rule:nonzero;stroke:none" transform="translate(202.271 79.61)"/><path d="M0 0c-.746-7.754 3.833-12.251 8.561-12.705 5.059-.486 9.047 2.28 9.657 8.616.744 7.753-3.872 12.351-8.6 12.805C4.558 9.202.613 6.384 0 0m-4.118-1.131c.623 6.478 6.925 11.981 14.681 11.236 7.281-.701 12.273-6.861 11.677-13.054-.618-6.431-6.874-11.936-14.675-11.187C.331-13.44-4.713-7.324-4.118-1.131" style="fill:#fff;fill-opacity:1;fill-rule:nonzero;stroke:none" transform="translate(226.954 87.28)"/><path d="M0 0c3.04.054 3.777 1.396 3.755 2.583-.015.808-.545 1.274-1.694 1.824-.911.41-1.346.784-1.36 1.592-.016.901.732 1.579 1.731 1.596C3.95 7.624 5.589 6.37 5.63 4.043 5.679 1.289 3.34-.845.063-.903-.221-.908-.095-.003 0 0" style="fill:#fff;fill-opacity:1;fill-rule:nonzero;stroke:none" transform="translate(252.743 68.457)"/><path d="M0 0c1.138-4.71-1.46-9.539-7.647-11.035-5.356-1.294-10.742.974-12.08 6.514l-1.963 8.127c-1.06 4.387-1.711 4.863-4.802 4.509-.139-.034-.454.867-.156.84 1.489.117 3.694.698 5.771 1.199 1.477.358 3.774.962 4.849 1.367.256.159.478-.764.247-.82-3.072-1.036-3.125-2.024-2.122-6.182l1.772-7.341c1.307-5.401 5.396-6.956 8.95-6.097C-2.517-7.79-.672-4.707-1.822.049l-1.984 8.217c-.96 3.973-1.634 4.541-4.725 4.188-.241-.01-.454.866-.156.842 1.489.115 2.54.417 4.571.908 1.43.344 2.944.759 3.971 1.155.36.134.386-.786.293-.808-3.117-1.048-3.149-2.132-2.246-5.872z" style="fill:#fff;fill-opacity:1;fill-rule:nonzero;stroke:none" transform="translate(302.55 88.399)"/><path d="M0 0c.059-.13-.737-.445-.776-.357-.957 1.285-2.537 1.761-5.989.174l-2.85-1.309 6.292-13.682c1.766-3.84 2.402-4.541 5.542-3.41.13.058.613-.764.249-.881-1.052-.328-3.274-1.294-4.656-1.931-1.855-.853-3.97-1.824-5.229-2.613-.306-.247-.549.74-.42.801 2.71 1.611 2.883 2.37 1.018 6.428l-6.292 13.679-3.019-1.389c-3.323-1.528-4.182-3.071-3.919-4.78-.152-.125-.801-.423-.816-.271-.187.749-.856 2.429-1.274 3.335-.159.344-.456.993-.945 1.604-.102.11.654.51.757.4.735-.918.84-.92 5.503 1.223l9.363 4.307c4.619 2.124 4.834 2.222 4.597 3.42-.017.149.823.484.818.272.144-.77.573-1.932 1.069-3.011C-.737 1.492-.242.412 0 0" style="fill:#fff;fill-opacity:1;fill-rule:nonzero;stroke:none" transform="translate(329.836 110.982)"/><path d="m0 0 5.469 3.699L-1.44 8.66zm11.189-4.761c-.181-.239-.623.669-.505.747 1.233 1.062 2.192 1.426 1.66 2.212-.613.906-2.002 1.858-3.526 3.008L6.699 2.813.325-1.499.83-4.197c.425-2.236.764-3.672 1.297-4.458.451-.669 1.198-.163 2.539.571.195.132.754-.693.463-.773-.983-.496-2.229-1.282-3.488-2.132-1.692-1.145-1.968-1.33-3.16-2.366-.209-.2-.625.667-.505.748C-.164-11.12.142-9.365-.598-5.049l-3.13 18.699c-.054.251.313.556.552.373L12.148 3.572c3.06-2.061 4.593-3.145 7.586-1.465.12.081.757-.694.466-.774-1.023-.52-2.741-1.626-4.04-2.503-1.692-1.144-3.816-2.583-4.971-3.591" style="fill:#fff;fill-opacity:1;fill-rule:nonzero;stroke:none" transform="translate(343.236 109.488)"/><path d="M0 0c-.134-.202-.74.535-.64.637C1.067 2.825.964 3.665-2.17 6.777l-3.438 3.416-8.972-9.028 3.437-3.416c2.964-2.947 3.941-3.381 6.116-1.526.103.1.877-.535.608-.671-.906-.708-2.412-2.156-3.484-3.235-1.438-1.448-3.315-3.335-4.25-4.548-.135-.269-.743.537-.64.637 2.241 2.861 2.139 3.433-1.062 6.614l-7.615 7.565c-3.2 3.182-3.84 3.348-6.655 1.055-.1-.1-.874.535-.605.669 1.206.879 3.081 2.766 4.521 4.214 1.072 1.079 2.476 2.627 3.179 3.538.134.268.774-.503.674-.603-1.841-2.19-1.402-3.162 1.599-6.143l3.201-3.181 8.971 9.031-3.2 3.181c-3.166 3.147-4.041 3.278-6.184 1.526-.1-.103-.877.534-.674.669 1.206.876 2.678 2.292 4.119 3.74 1.105 1.113 2.98 3.135 3.649 4.009.132.271.84-.433.672-.601-2.407-2.83-1.902-3.601 1.13-6.614L.542 9.507C3.574 6.494 4.28 6.06 7.129 8.452c.166.169.874-.535.605-.669-.871-.674-2.846-2.595-3.95-3.706C2.344 2.627.937 1.211 0 0" style="fill:#fff;fill-opacity:1;fill-rule:nonzero;stroke:none" transform="translate(381.647 127.942)"/><g aria-label="CS" style="font-style:normal;font-variant:normal;font-weight:400;font-stretch:normal;font-size:173.99394226px;line-height:1.25;font-family:Palatino;-inkscape-font-specification:Palatino;letter-spacing:0;word-spacing:0;fill:#002e79;fill-opacity:1;stroke:none;stroke-width:1.61299562;stroke-miterlimit:4;stroke-dasharray:none;stroke-opacity:1"><path d="m252.11-227.578-2.087-2.088c-11.31 5.916-22.445 8.874-33.929 8.874-30.623 0-50.632-21.576-50.632-54.46 0-29.928 16.877-48.37 44.542-48.37 13.224 0 21.576 3.305 30.971 12.005l.87 14.963h6.786c1.914-17.4 2.436-20.01 4.002-26.62l-1.044-1.915c-15.834-6.264-25.577-8.178-40.715-8.178-44.02 0-71.511 23.316-71.511 60.55 0 38.975 26.795 63.334 69.771 63.334 16.008 0 26.273-2.436 39.149-9.57zM262.189-247.588c0 13.05-.696 20.184-2.61 30.101 12.876 5.742 22.967 8.004 36.19 8.004 31.146 0 51.155-16.181 51.155-41.236 0-15.486-9.048-26.1-26.273-30.623l-19.835-5.22c-12.876-3.48-18.444-8.7-18.444-17.574 0-12.18 9.396-20.357 23.316-20.357 9.221 0 17.05 3.132 23.663 9.57l1.044 14.267h7.133c0-11.31.87-19.661 2.436-24.707l-.87-2.088c-11.657-4.176-20.705-5.916-32.189-5.916-29.057 0-46.108 13.92-46.108 37.41 0 14.789 8.874 25.75 25.403 30.622l24.36 7.308c9.743 2.958 14.44 8.352 14.44 16.703 0 12.876-11.135 22.445-26.098 22.445-11.832 0-22.967-5.22-28.535-13.397l-1.218-15.312z" style="font-style:normal;font-variant:normal;font-weight:700;font-stretch:normal;font-family:Palatino;-inkscape-font-specification:'Palatino Bold';letter-spacing:-7.32081985px;fill:#002e79;fill-opacity:1;stroke:none;stroke-width:1.61299562;stroke-miterlimit:4;stroke-dasharray:none;stroke-opacity:1" transform="scale(1 -1)"/></g><g aria-label="Department" style="font-style:normal;font-weight:400;font-size:33.05305862px;line-height:1.25;font-family:sans-serif;letter-spacing:-.7582314px;word-spacing:0;opacity:.98000004;fill:#002e79;fill-opacity:1;stroke:none;stroke-width:.82632631"><path d="M162.16-172.197v.76c2.875-.065 4.197-.098 5.156-.098.892 0 2.082.033 3.173.066.76.033 1.52.033 1.95.033 3.934 0 7.57-1.389 10.048-3.835 2.248-2.214 3.405-5.123 3.405-8.692 0-3.14-.893-5.719-2.545-7.338-1.917-1.884-4.694-2.744-8.99-2.744l-4.496.066c-3.24.033-3.24.033-3.47.033-.43 0-.43 0-5.322-.099v1.223l1.223.1c1.52.132 1.553.264 1.587 3.239v14.807c-.034 1.19-.166 1.587-.662 1.884zm6.379-20.063c.76-.099 1.256-.132 2.05-.132 2.313 0 4.924.43 6.312 1.058.661.33 1.29.76 1.851 1.322 1.488 1.454 2.182 3.702 2.182 6.974 0 3.372-.793 5.85-2.413 7.437-1.653 1.62-4 2.347-7.734 2.347-.893 0-1.422-.033-2.248-.165zM201.726-181.286c0-3.537-2.479-5.817-6.28-5.817-1.124 0-1.983.23-2.876.76l-1.553.925c-2.182 1.322-3.14 3.24-3.14 6.413 0 5.255 2.611 8.031 7.57 8.031 1.916 0 3.073-.33 5.221-1.42l.728-1.587-.397-.496c-1.553.86-2.545 1.157-3.867 1.157-1.719 0-3.339-.926-4.165-2.347-.529-.926-.727-1.686-.793-3.24h4.33c1.917 0 3.603-.23 5.222-.66zm-6.974.727h-.132c-.298 0-.86-.033-1.587-.066-.165 0-.463 0-1.057-.033.099-3.272.892-4.594 2.809-4.594 1.884 0 2.677 1.322 2.743 4.594zM203.215-164.23v1.222l4.264-.099h.43c.364 0 .364 0 4.363.1v-1.224l-1.487-.066c-1.058-.066-1.19-.297-1.19-2.115v-5.123c1.62.462 2.148.561 2.941.561 1.124 0 2.281-.594 4.529-2.38.231-.165.462-.33.562-.429 2.181-1.653 3.371-4.23 3.371-7.206 0-3.536-2.545-6.114-5.983-6.114-1.322 0-2.247.363-3.404 1.289l-2.016 1.62v-2.711l-.33-.198-2.315.727c-1.19.33-1.751.462-3.37.66l-.365.034v1.19l1.488.099c.76.066.86.297.86 2.314v15.667c0 1.818-.1 2.016-1.19 2.115zm6.38-18.246c.694-1.09 1.818-1.653 3.173-1.653 2.545 0 4.065 1.984 4.065 5.289 0 3.47-1.487 5.619-3.9 5.619-1.388 0-2.446-.562-3.338-1.818zM231.577-173.75l-.165 2.05.165.264c1.752-.066 2.512-.1 3.008-.1.463 0 1.19.034 2.908.1v-1.223l-.991-.1c-.727-.099-.893-.462-.926-2.016v-.694c-.033-1.124-.066-2.05-.066-2.81 0-.826.033-1.916.066-3.172.033-.43.033-.76.033-.992 0-2.909-1.983-4.66-5.321-4.66-1.421 0-2.71.363-3.966 1.123l-1.752 1.058v2.28l.991.232.727-1.653c.1-.231 1.025-.462 1.918-.462 2.214 0 3.272 1.223 3.371 3.9l-2.909.595c-4.164.86-5.652 2.148-5.652 4.958 0 2.677 1.355 4.098 3.867 4.098.76 0 1.29-.132 1.62-.396zm0-1.587c-.628.86-1.851 1.488-2.843 1.488-1.057 0-1.685-.793-1.685-2.082 0-1.62.694-2.281 3.04-2.91l1.488-.396zM238.454-172.66v1.224l4.264-.1c.43 0 .496 0 4.99.1v-1.223l-1.288-.066c-1.52-.166-1.587-.265-1.587-2.116v-6.544c0-1.025 1.355-2.116 2.644-2.116.827 0 1.422.364 1.884 1.19l.794-.33.165-4.264a3.515 3.515 0 0 0-1.223-.198c-.959 0-1.554.396-2.81 1.751l-1.454 1.587v-3.14l-.33-.198-2.314.727c-1.025.33-1.653.43-3.735.694v1.19l1.487.099c.76.066.86.297.86 2.314v7.238c0 1.818-.1 2.017-1.19 2.116zM261.13-173.519l-.264-.628c-.694.33-.992.43-1.52.43-1.554 0-2.05-.529-2.05-2.148v-7.867h3.504l.264-2.148-3.768.198v-1.917c0-1.818.1-2.975.397-4.495l-.463-.331c-1.322.628-2.347 1.025-4.032 1.653.099 1.652.132 2.313.132 3.04v1.984l-2.182 1.421v.727l2.116-.132v8.56c0 2.942 1.223 4.198 4.098 4.198 1.025 0 1.851-.23 2.149-.594zM262.157-172.66v1.224l4.264-.1c.76 0 2.181.034 4.197.1v-1.223l-.892-.066c-1.09-.133-1.19-.298-1.19-2.116v-7.172c0-1.124 1.355-2.248 2.677-2.248 1.917 0 2.843 1.223 2.843 3.834v5.586c0 1.818-.132 2.05-1.19 2.116l-1.025.066v1.223c2.38-.066 3.372-.1 4.264-.1.893 0 1.917.034 4.33.1v-1.223l-1.157-.066c-1.09-.1-1.19-.298-1.19-2.116v-7.172c0-1.124 1.356-2.248 2.678-2.248 1.917 0 2.842 1.223 2.842 3.834v8.99l3.074-.098c1.653.033 1.884.033 3.24.099v-1.223l-1.091-.066c-1.091-.1-1.19-.298-1.19-2.116v-6.148c0-4.56-1.19-6.114-4.76-6.114-1.058 0-1.785.198-2.347.628l-2.644 2.049c-.76-1.884-2.082-2.677-4.363-2.677-1.058 0-1.785.198-2.347.628l-2.644 2.049v-2.48l-.198-.197c-3.438 1.123-4.363 1.322-6.181 1.42v1.19l1.487.1c.76.066.86.297.86 2.314v7.238c0 1.818-.1 2.017-1.19 2.116zM305.227-181.286c0-3.537-2.479-5.817-6.28-5.817-1.124 0-1.983.23-2.876.76l-1.553.925c-2.182 1.322-3.14 3.24-3.14 6.413 0 5.255 2.61 8.031 7.569 8.031 1.917 0 3.074-.33 5.222-1.42l.727-1.587-.396-.496c-1.554.86-2.545 1.157-3.867 1.157-1.72 0-3.339-.926-4.165-2.347-.529-.926-.727-1.686-.793-3.24h4.33c1.917 0 3.602-.23 5.222-.66zm-6.974.727h-.132c-.298 0-.86-.033-1.587-.066-.165 0-.463 0-1.058-.033.1-3.272.893-4.594 2.81-4.594 1.884 0 2.677 1.322 2.743 4.594zM306.551-172.66v1.224l4.264-.1c.66 0 2.247.034 4.462.1v-1.223l-1.157-.066c-1.09-.1-1.19-.298-1.19-2.116v-7.172c0-1.157 1.355-2.248 2.843-2.248 2.148 0 3.074 1.124 3.074 3.801v9.024c1.718-.066 2.38-.1 2.975-.1.528 0 1.222.034 3.338.1v-1.223l-1.09-.066c-1.092-.1-1.19-.298-1.19-2.116v-6.148c0-2.545-.298-3.8-1.158-4.726-.859-.893-2.181-1.388-3.834-1.388-1.024 0-1.752.198-2.314.628l-2.644 2.049v-2.48l-.198-.197c-3.438 1.123-4.363 1.322-6.181 1.42v1.19l1.487.1c.76.066.86.297.86 2.314v7.238c0 1.818-.1 2.017-1.19 2.116zM335.904-173.519l-.264-.628c-.694.33-.992.43-1.52.43-1.554 0-2.05-.529-2.05-2.148v-7.867h3.504l.264-2.148-3.768.198v-1.917c0-1.818.1-2.975.397-4.495l-.463-.331c-1.322.628-2.347 1.025-4.033 1.653.1 1.652.133 2.313.133 3.04v1.984l-2.182 1.421v.727l2.115-.132v8.56c0 2.942 1.223 4.198 4.099 4.198 1.025 0 1.851-.23 2.148-.594z" style="font-style:normal;font-variant:normal;font-weight:700;font-stretch:normal;font-family:Palatino;-inkscape-font-specification:'Palatino Bold';letter-spacing:-.7582314px;fill:#002e79;fill-opacity:1;stroke-width:.82632631" transform="scale(1.00883 -.99125)"/></g></g><path style="fill:#b58a43;fill-opacity:1;fill-rule:nonzero;stroke:none;stroke-width:.61223221" d="M174.475 227.878H82.054a.765.765 0 1 1 0-1.53h91.892a.765.765 0 1 1 0 1.53M195.54 200.739H60.99a.765.765 0 1 1 0-1.53h134.02a.765.765 0 1 1 0 1.53" transform="translate(0 -41)"/></g></svg>