<svg xmlns="http://www.w3.org/2000/svg" viewBox="0 0 51.68 15.22"><defs><style>.cls-1{fill:#212121}</style></defs><g id="Layer_2" data-name="Layer 2"><g id="Layer_2-2" data-name="Layer 2"><path class="cls-1" d="M14.24 2.71a.67.67 0 0 0-.24-.24.85.85 0 0 0-.38-.09 1 1 0 0 0-.8.3 1.13 1.13 0 0 0-.28.8 1.12 1.12 0 0 0 .28.8 1 1 0 0 0 .8.31.67.67 0 0 0 .38-.1 1.27 1.27 0 0 0 .28-.23l.89.93a1.74 1.74 0 0 1-.74.46 3.09 3.09 0 0 1-.81.13 2.91 2.91 0 0 1-.95-.16 2.36 2.36 0 0 1-.78-.47 2.22 2.22 0 0 1-.52-.72 2.4 2.4 0 0 1-.18-.95 2.39 2.39 0 0 1 .18-.94 2.26 2.26 0 0 1 .52-.73 2.33 2.33 0 0 1 .78-.46 2.67 2.67 0 0 1 .95-.16 2.73 2.73 0 0 1 .81.13 1.83 1.83 0 0 1 .74.45ZM15.46 3.48a2.23 2.23 0 0 1 .19-.94 2.09 2.09 0 0 1 .51-.73 2.33 2.33 0 0 1 .78-.46 2.67 2.67 0 0 1 .95-.16 2.75 2.75 0 0 1 .95.16 2.39 2.39 0 0 1 .77.46 2.26 2.26 0 0 1 .52.73 2.45 2.45 0 0 1 0 1.89 2.22 2.22 0 0 1-.52.72 2.42 2.42 0 0 1-.77.47 3 3 0 0 1-.95.16 2.91 2.91 0 0 1-.95-.16 2.36 2.36 0 0 1-.78-.47 2.05 2.05 0 0 1-.51-.72 2.24 2.24 0 0 1-.19-.95Zm1.35 0a1.12 1.12 0 0 0 .28.8 1.17 1.17 0 0 0 1.59 0 1.12 1.12 0 0 0 .29-.8 1.14 1.14 0 0 0-.29-.8 1.2 1.2 0 0 0-1.59 0 1.13 1.13 0 0 0-.28.8ZM21.11 1.3h1.29v.59a1 1 0 0 1 .18-.25 1.27 1.27 0 0 1 .28-.23 1.79 1.79 0 0 1 .37-.16 1.78 1.78 0 0 1 1.26.13 1.16 1.16 0 0 1 .54.59 1.51 1.51 0 0 1 .57-.6 1.69 1.69 0 0 1 .82-.18 1.65 1.65 0 0 1 .74.15 1.26 1.26 0 0 1 .48.4 1.81 1.81 0 0 1 .25.6 3.61 3.61 0 0 1 .07.75v2.58h-1.33V3.12a1 1 0 0 0-.13-.52.48.48 0 0 0-.5-.22.88.88 0 0 0-.39.07.58.58 0 0 0-.25.21.84.84 0 0 0-.14.32 1.58 1.58 0 0 0 0 .38v2.31h-1.35v-2.6a.87.87 0 0 0-.06-.32.71.71 0 0 0-.18-.27.52.52 0 0 0-.35-.1.89.89 0 0 0-.43.09.64.64 0 0 0-.24.25 1.09 1.09 0 0 0-.12.36V5.67h-1.38ZM29.06 1.3h1.25v.57a1.6 1.6 0 0 1 .22-.24 1.46 1.46 0 0 1 .3-.22 2.54 2.54 0 0 1 .38-.16 1.63 1.63 0 0 1 .45-.06 2.3 2.3 0 0 1 .88.16 2.18 2.18 0 0 1 .68.47 2 2 0 0 1 .43.72 2.63 2.63 0 0 1 .16.91 2.78 2.78 0 0 1-.14.87 2.69 2.69 0 0 1-.4.75 1.84 1.84 0 0 1-.63.51 1.73 1.73 0 0 1-.83.2 2.52 2.52 0 0 1-.81-.13 1.33 1.33 0 0 1-.6-.45v2.52h-1.34Zm1.25 2.18a1.12 1.12 0 0 0 .28.8 1.17 1.17 0 0 0 1.59 0 1.12 1.12 0 0 0 .29-.8 1.14 1.14 0 0 0-.29-.8 1.2 1.2 0 0 0-1.59 0 1.13 1.13 0 0 0-.28.8ZM38.82 5.67h-1.3v-.59a1.84 1.84 0 0 1-.19.25 1.18 1.18 0 0 1-.27.22 1.38 1.38 0 0 1-.37.16 1.33 1.33 0 0 1-.45.07 1.81 1.81 0 0 1-.83-.16 1.13 1.13 0 0 1-.5-.44 1.62 1.62 0 0 1-.23-.65 5.36 5.36 0 0 1-.06-.82V1.3H36V3.83a1.43 1.43 0 0 0 .08.37.67.67 0 0 0 .21.28.66.66 0 0 0 .4.11.84.84 0 0 0 .42-.09.69.69 0 0 0 .25-.26 1 1 0 0 0 .11-.35 2.77 2.77 0 0 0 0-.42V1.3h1.35ZM42.75 2.38h-1.18v1.78a.66.66 0 0 0 .08.26.48.48 0 0 0 .2.17 1 1 0 0 0 .34 0 1.62 1.62 0 0 0 .29 0 .47.47 0 0 0 .26-.1v1.15a1.79 1.79 0 0 1-.47.11h-.47a3 3 0 0 1-.63-.07 1.69 1.69 0 0 1-.51-.23 1.2 1.2 0 0 1-.33-.41 1.44 1.44 0 0 1-.13-.61V2.38h-.86V1.3h.86V0h1.36v1.3h1.18ZM47.58 4.91a2.15 2.15 0 0 1-.82.64 2.46 2.46 0 0 1-1 .23 3 3 0 0 1-.95-.16 2.42 2.42 0 0 1-.81-.47 2.22 2.22 0 0 1-.52-.72 2.24 2.24 0 0 1-.19-.95 2.23 2.23 0 0 1 .19-.94 2.26 2.26 0 0 1 .52-.73 2.39 2.39 0 0 1 .77-.46 2.75 2.75 0 0 1 .95-.16 2.11 2.11 0 0 1 .85.16 1.79 1.79 0 0 1 .65.46 2.16 2.16 0 0 1 .41.73 2.81 2.81 0 0 1 .14.94v.43h-3.12a1.1 1.1 0 0 0 .35.61 1 1 0 0 0 .67.23 1 1 0 0 0 .56-.15 1.44 1.44 0 0 0 .4-.38ZM46.43 3a.79.79 0 0 0-.22-.59.81.81 0 0 0-.6-.24 1 1 0 0 0-.4.07 1 1 0 0 0-.29.19.7.7 0 0 0-.19.26.84.84 0 0 0-.08.31ZM48.6 1.3H50V2a1.75 1.75 0 0 1 .51-.61 1.35 1.35 0 0 1 .75-.2h.23a.78.78 0 0 1 .22 0v1.28a1.64 1.64 0 0 0-.28-.07 1.46 1.46 0 0 0-.3 0 1.49 1.49 0 0 0-.61.1.85.85 0 0 0-.34.31 1 1 0 0 0-.16.46 3.65 3.65 0 0 0 0 .59v1.81H48.6ZM11.57 13.58a1.62 1.62 0 0 0 .71.71 2 2 0 0 0 1 .25 1.61 1.61 0 0 0 .48-.08 1.56 1.56 0 0 0 .43-.21 1.12 1.12 0 0 0 .31-.34.84.84 0 0 0 .12-.45.71.71 0 0 0-.26-.6 1.92 1.92 0 0 0-.64-.32 7.79 7.79 0 0 0-.83-.2 3.44 3.44 0 0 1-.84-.25 1.78 1.78 0 0 1-.64-.47 1.32 1.32 0 0 1-.26-.86 1.49 1.49 0 0 1 .18-.75 1.68 1.68 0 0 1 .46-.53 2 2 0 0 1 .64-.31 3 3 0 0 1 .72-.1 2.71 2.71 0 0 1 1.25.27 1.81 1.81 0 0 1 .81.83l-.68.41a1.38 1.38 0 0 0-1.38-.82 1.64 1.64 0 0 0-.42.06 1.32 1.32 0 0 0-.4.18.92.92 0 0 0-.3.29.7.7 0 0 0-.12.4.67.67 0 0 0 .26.58 1.9 1.9 0 0 0 .64.3 7.65 7.65 0 0 0 .84.18 4 4 0 0 1 .83.25 1.74 1.74 0 0 1 .64.5 1.43 1.43 0 0 1 .26.91 1.64 1.64 0 0 1-.64 1.36 2.17 2.17 0 0 1-.68.34 3 3 0 0 1-.79.11 3.32 3.32 0 0 1-1.39-.29 2.06 2.06 0 0 1-1-.9ZM21.85 14.21a2.74 2.74 0 0 1-1 .77 2.85 2.85 0 0 1-1.17.24 3.15 3.15 0 0 1-1.22-.22 2.85 2.85 0 0 1-1-.63 3 3 0 0 1-.63-1 3.28 3.28 0 0 1-.23-1.23 3.34 3.34 0 0 1 .23-1.24 2.9 2.9 0 0 1 .63-1 2.87 2.87 0 0 1 1-.64 3.34 3.34 0 0 1 1.24-.23 2.66 2.66 0 0 1 1.19.27 3.06 3.06 0 0 1 1 .74l-.6.46a2.67 2.67 0 0 0-.73-.58 1.86 1.86 0 0 0-.84-.2 2.33 2.33 0 0 0-1 .19 2.15 2.15 0 0 0-1.19 1.27 2.78 2.78 0 0 0 0 1.86 2.18 2.18 0 0 0 .46.76 2.39 2.39 0 0 0 .73.51 2.33 2.33 0 0 0 1 .19 1.77 1.77 0 0 0 .88-.22 2.58 2.58 0 0 0 .69-.59ZM23 7.63a.57.57 0 0 1 .17-.41.54.54 0 0 1 .4-.16.55.55 0 0 1 .57.57A.54.54 0 0 1 24 8a.57.57 0 0 1-.41.17.58.58 0 0 1-.59-.54Zm.19 1.59h.76v5.85h-.76ZM31.24 14a2.52 2.52 0 0 1-1.1 1 3.53 3.53 0 0 1-1.44.29 3 3 0 0 1-1.21-.29A2.67 2.67 0 0 1 26 13.38a3.52 3.52 0 0 1-.21-1.25 3.42 3.42 0 0 1 .21-1.21 3 3 0 0 1 .61-1 2.87 2.87 0 0 1 2.1-.88 2.76 2.76 0 0 1 1.18.24 2.47 2.47 0 0 1 .86.62 2.62 2.62 0 0 1 .53.88 3.14 3.14 0 0 1 .17 1v.53H26.5a2.82 2.82 0 0 0 .1.61 2.13 2.13 0 0 0 .35.73 2.33 2.33 0 0 0 .67.61 2.24 2.24 0 0 0 1.1.25 2.35 2.35 0 0 0 1.12-.28 2 2 0 0 0 .84-.76Zm-.59-2.32a1.8 1.8 0 0 0-.15-.73 2 2 0 0 0-.43-.6 2.17 2.17 0 0 0-.65-.41 2.09 2.09 0 0 0-.79-.15 1.92 1.92 0 0 0-1 .25 2.18 2.18 0 0 0-.65.58 2.4 2.4 0 0 0-.35.64 2.24 2.24 0 0 0-.1.42ZM33.11 10.87V9.22h.75v1.03a2.06 2.06 0 0 1 .76-.83 2.25 2.25 0 0 1 1.24-.35 2.43 2.43 0 0 1 1.14.22 1.77 1.77 0 0 1 .67.56 2 2 0 0 1 .34.8 4.23 4.23 0 0 1 .1.94v3.48h-.76v-3.44a3.85 3.85 0 0 0-.06-.69 2.25 2.25 0 0 0-.22-.6 1.24 1.24 0 0 0-.45-.43 1.57 1.57 0 0 0-.74-.15 2.09 2.09 0 0 0-.79.14 1.79 1.79 0 0 0-.64.44 2 2 0 0 0-.43.75 3.07 3.07 0 0 0-.16 1.06v2.92h-.76ZM45 14.21a2.8 2.8 0 0 1-1 .77 2.93 2.93 0 0 1-1.18.24 3.15 3.15 0 0 1-1.17-.22 2.72 2.72 0 0 1-1-.63 2.82 2.82 0 0 1-.64-1 3.28 3.28 0 0 1-.23-1.23 3.34 3.34 0 0 1 .22-1.23 2.78 2.78 0 0 1 .64-1 2.74 2.74 0 0 1 1-.64 3.34 3.34 0 0 1 1.24-.23 2.63 2.63 0 0 1 1.19.27 3.21 3.21 0 0 1 1 .74l-.61.46a2.78 2.78 0 0 0-.72-.58 1.9 1.9 0 0 0-.85-.2 2.29 2.29 0 0 0-1 .19 2.13 2.13 0 0 0-.74.51 2.24 2.24 0 0 0-.46.76 2.78 2.78 0 0 0 0 1.86 2.34 2.34 0 0 0 .46.76 2.44 2.44 0 0 0 .74.51 2.29 2.29 0 0 0 1 .19 1.77 1.77 0 0 0 .88-.22 2.58 2.58 0 0 0 .69-.59ZM51.39 14a2.5 2.5 0 0 1-1.09 1 3.6 3.6 0 0 1-1.44.29 2.94 2.94 0 0 1-1.21-.29 2.68 2.68 0 0 1-.94-.63 2.88 2.88 0 0 1-.6-1 3.52 3.52 0 0 1-.21-1.25 3.21 3.21 0 0 1 .22-1.21 2.93 2.93 0 0 1 .6-1 3 3 0 0 1 3.28-.6 2.47 2.47 0 0 1 .86.62 2.6 2.6 0 0 1 .52.88 2.89 2.89 0 0 1 .18 1v.53h-4.9a2.31 2.31 0 0 0 .1.61 2.1 2.1 0 0 0 .34.73 2.37 2.37 0 0 0 .68.61 2.2 2.2 0 0 0 1.09.25 2.39 2.39 0 0 0 1.13-.28 2.06 2.06 0 0 0 .84-.76Zm-.58-2.32a1.66 1.66 0 0 0-.16-.73 1.84 1.84 0 0 0-.43-.6 2 2 0 0 0-.64-.41 2.13 2.13 0 0 0-.79-.15 2 2 0 0 0-1 .25 2.31 2.31 0 0 0-.65.58 2.35 2.35 0 0 0-.34.64 1.63 1.63 0 0 0-.1.42Z"/><path d="M8.6 1.33a1 1 0 0 0-1.36.37L4.55 6.44 1.87 1.7a1 1 0 0 0-1.74 1l3.42 6v5.49a1 1 0 0 0 2 0V8.73L9 2.69a1 1 0 0 0-.4-1.36Z" style="fill:#7a7ac4"/></g></g></svg>