<svg width="88" height="40" viewBox="0 0 88 40" fill="none" xmlns="http://www.w3.org/2000/svg">
<rect x="2" y="2" width="84" height="36" rx="2" stroke="#001E4C" stroke-width="2.8"/>
<path d="M6.83081 23.3713H9.50981V21.4333C9.50981 20.8886 9.69348 20.4326 10.0608 20.0653C10.4281 19.6853 10.8841 19.4953 11.4288 19.4953H15.2668V21.7753H12.4168C12.0748 21.7753 11.9038 21.9653 11.9038 22.3453V23.3713H15.6088V25.6513H11.9038V32.7953H9.50981V25.6513H6.83081V23.3713Z" fill="#001E4C"/>
<path d="M25.8746 28.1973C25.8746 28.9826 25.7416 29.6793 25.4756 30.2873C25.2096 30.8826 24.8486 31.3893 24.3926 31.8073C23.9366 32.2126 23.4109 32.523 22.8156 32.7383C22.2329 32.9536 21.6186 33.0613 20.9726 33.0613C20.3266 33.0613 19.7059 32.9536 19.1106 32.7383C18.5279 32.523 18.0086 32.2126 17.5526 31.8073C17.0966 31.3893 16.7356 30.8826 16.4696 30.2873C16.2036 29.6793 16.0706 28.9826 16.0706 28.1973V27.9693C16.0706 27.1966 16.2036 26.5126 16.4696 25.9173C16.7356 25.3093 17.0966 24.7963 17.5526 24.3783C18.0086 23.9603 18.5279 23.6436 19.1106 23.4283C19.7059 23.213 20.3266 23.1053 20.9726 23.1053C21.6186 23.1053 22.2329 23.213 22.8156 23.4283C23.4109 23.6436 23.9366 23.9603 24.3926 24.3783C24.8486 24.7963 25.2096 25.3093 25.4756 25.9173C25.7416 26.5126 25.8746 27.1966 25.8746 27.9693V28.1973ZM20.9726 30.7813C21.3146 30.7813 21.6376 30.7243 21.9416 30.6103C22.2456 30.4963 22.5116 30.3316 22.7396 30.1163C22.9676 29.901 23.1449 29.6413 23.2716 29.3373C23.4109 29.0206 23.4806 28.666 23.4806 28.2733V27.8933C23.4806 27.5006 23.4109 27.1523 23.2716 26.8483C23.1449 26.5316 22.9676 26.2656 22.7396 26.0503C22.5116 25.835 22.2456 25.6703 21.9416 25.5563C21.6376 25.4423 21.3146 25.3853 20.9726 25.3853C20.6306 25.3853 20.3076 25.4423 20.0036 25.5563C19.6996 25.6703 19.4336 25.835 19.2056 26.0503C18.9776 26.2656 18.7939 26.5316 18.6546 26.8483C18.5279 27.1523 18.4646 27.5006 18.4646 27.8933V28.2733C18.4646 28.666 18.5279 29.0206 18.6546 29.3373C18.7939 29.6413 18.9776 29.901 19.2056 30.1163C19.4336 30.3316 19.6996 30.4963 20.0036 30.6103C20.3076 30.7243 20.6306 30.7813 20.9726 30.7813Z" fill="#001E4C"/>
<path d="M36.5584 28.1973C36.5584 28.9826 36.4254 29.6793 36.1594 30.2873C35.8934 30.8826 35.5324 31.3893 35.0764 31.8073C34.6204 32.2126 34.0947 32.523 33.4994 32.7383C32.9167 32.9536 32.3024 33.0613 31.6564 33.0613C31.0104 33.0613 30.3897 32.9536 29.7944 32.7383C29.2117 32.523 28.6924 32.2126 28.2364 31.8073C27.7804 31.3893 27.4194 30.8826 27.1534 30.2873C26.8874 29.6793 26.7544 28.9826 26.7544 28.1973V27.9693C26.7544 27.1966 26.8874 26.5126 27.1534 25.9173C27.4194 25.3093 27.7804 24.7963 28.2364 24.3783C28.6924 23.9603 29.2117 23.6436 29.7944 23.4283C30.3897 23.213 31.0104 23.1053 31.6564 23.1053C32.3024 23.1053 32.9167 23.213 33.4994 23.4283C34.0947 23.6436 34.6204 23.9603 35.0764 24.3783C35.5324 24.7963 35.8934 25.3093 36.1594 25.9173C36.4254 26.5126 36.5584 27.1966 36.5584 27.9693V28.1973ZM31.6564 30.7813C31.9984 30.7813 32.3214 30.7243 32.6254 30.6103C32.9294 30.4963 33.1954 30.3316 33.4234 30.1163C33.6514 29.901 33.8287 29.6413 33.9554 29.3373C34.0947 29.0206 34.1644 28.666 34.1644 28.2733V27.8933C34.1644 27.5006 34.0947 27.1523 33.9554 26.8483C33.8287 26.5316 33.6514 26.2656 33.4234 26.0503C33.1954 25.835 32.9294 25.6703 32.6254 25.5563C32.3214 25.4423 31.9984 25.3853 31.6564 25.3853C31.3144 25.3853 30.9914 25.4423 30.6874 25.5563C30.3834 25.6703 30.1174 25.835 29.8894 26.0503C29.6614 26.2656 29.4777 26.5316 29.3384 26.8483C29.2117 27.1523 29.1484 27.5006 29.1484 27.8933V28.2733C29.1484 28.666 29.2117 29.0206 29.3384 29.3373C29.4777 29.6413 29.6614 29.901 29.8894 30.1163C30.1174 30.3316 30.3834 30.4963 30.6874 30.6103C30.9914 30.7243 31.3144 30.7813 31.6564 30.7813Z" fill="#001E4C"/>
<path d="M36.9822 23.3713H39.7752V19.4953H42.1692V23.3713H45.5702V25.6513H42.1692V29.9453C42.1692 30.3253 42.3402 30.5153 42.6822 30.5153H45.2282V32.7953H41.2382C40.8075 32.7953 40.4528 32.656 40.1742 32.3773C39.9082 32.0986 39.7752 31.744 39.7752 31.3133V25.6513H36.9822V23.3713Z" fill="#001E4C"/>
<path d="M46.526 23.3713H50.744V24.7393H51.086C51.2633 24.22 51.561 23.821 51.979 23.5423C52.4096 23.251 52.9226 23.1053 53.518 23.1053C54.4553 23.1053 55.209 23.403 55.779 23.9983C56.349 24.581 56.634 25.474 56.634 26.6773V27.0953L54.164 27.3233V27.0573C54.164 26.538 54.031 26.1263 53.765 25.8223C53.499 25.5056 53.1 25.3473 52.568 25.3473C52.036 25.3473 51.618 25.531 51.314 25.8983C51.01 26.2656 50.858 26.7913 50.858 27.4753V32.7953H48.464V25.6513H46.526V23.3713Z" fill="#001E4C"/>
<path d="M67.2798 28.1973C67.2798 28.9826 67.1468 29.6793 66.8808 30.2873C66.6148 30.8826 66.2538 31.3893 65.7978 31.8073C65.3418 32.2126 64.8161 32.523 64.2208 32.7383C63.6381 32.9536 63.0238 33.0613 62.3778 33.0613C61.7318 33.0613 61.1111 32.9536 60.5158 32.7383C59.9331 32.523 59.4138 32.2126 58.9578 31.8073C58.5018 31.3893 58.1408 30.8826 57.8748 30.2873C57.6088 29.6793 57.4758 28.9826 57.4758 28.1973V27.9693C57.4758 27.1966 57.6088 26.5126 57.8748 25.9173C58.1408 25.3093 58.5018 24.7963 58.9578 24.3783C59.4138 23.9603 59.9331 23.6436 60.5158 23.4283C61.1111 23.213 61.7318 23.1053 62.3778 23.1053C63.0238 23.1053 63.6381 23.213 64.2208 23.4283C64.8161 23.6436 65.3418 23.9603 65.7978 24.3783C66.2538 24.7963 66.6148 25.3093 66.8808 25.9173C67.1468 26.5126 67.2798 27.1966 67.2798 27.9693V28.1973ZM62.3778 30.7813C62.7198 30.7813 63.0428 30.7243 63.3468 30.6103C63.6508 30.4963 63.9168 30.3316 64.1448 30.1163C64.3728 29.901 64.5501 29.6413 64.6768 29.3373C64.8161 29.0206 64.8858 28.666 64.8858 28.2733V27.8933C64.8858 27.5006 64.8161 27.1523 64.6768 26.8483C64.5501 26.5316 64.3728 26.2656 64.1448 26.0503C63.9168 25.835 63.6508 25.6703 63.3468 25.5563C63.0428 25.4423 62.7198 25.3853 62.3778 25.3853C62.0358 25.3853 61.7128 25.4423 61.4088 25.5563C61.1048 25.6703 60.8388 25.835 60.6108 26.0503C60.3828 26.2656 60.1991 26.5316 60.0598 26.8483C59.9331 27.1523 59.8698 27.5006 59.8698 27.8933V28.2733C59.8698 28.666 59.9331 29.0206 60.0598 29.3373C60.1991 29.6413 60.3828 29.901 60.6108 30.1163C60.8388 30.3316 61.1048 30.4963 61.4088 30.6103C61.7128 30.7243 62.0358 30.7813 62.3778 30.7813Z" fill="#001E4C"/>
<path d="M70.5536 32.7953H68.1595V23.3713H70.5536V24.7773H70.8955C71.1109 24.2453 71.4592 23.8336 71.9405 23.5423C72.4219 23.251 72.9855 23.1053 73.6315 23.1053C74.0875 23.1053 74.5119 23.1813 74.9045 23.3333C75.3099 23.4726 75.6646 23.6943 75.9686 23.9983C76.2726 24.3023 76.5069 24.6886 76.6715 25.1573C76.8489 25.626 76.9375 26.1833 76.9375 26.8293V32.7953H74.5435V27.4373C74.5435 26.766 74.3789 26.2403 74.0495 25.8603C73.7329 25.4676 73.2705 25.2713 72.6625 25.2713C71.9532 25.2713 71.4212 25.512 71.0666 25.9933C70.7246 26.462 70.5536 27.0953 70.5536 27.8933V32.7953Z" fill="#001E4C"/>
</svg>
