<svg width="88" height="40" viewBox="0 0 88 40" fill="none" xmlns="http://www.w3.org/2000/svg">
<rect x="2" y="2" width="84" height="36" rx="2" stroke="#001E4C" stroke-width="2.8"/>
<path d="M18.6648 29.1553C18.4382 30.3286 17.8982 31.2753 17.0448 31.9953C16.2048 32.7153 15.0782 33.0753 13.6648 33.0753C12.9315 33.0753 12.2448 32.962 11.6048 32.7353C10.9782 32.5086 10.4315 32.182 9.96484 31.7553C9.49818 31.3286 9.13151 30.802 8.86484 30.1753C8.59818 29.5486 8.46484 28.8353 8.46484 28.0353V27.7953C8.46484 26.9953 8.59818 26.2753 8.86484 25.6353C9.13151 24.9953 9.49818 24.4486 9.96484 23.9953C10.4448 23.542 10.9982 23.1953 11.6248 22.9553C12.2648 22.7153 12.9448 22.5953 13.6648 22.5953C15.0515 22.5953 16.1715 22.9553 17.0248 23.6753C17.8915 24.3953 18.4382 25.342 18.6648 26.5153L16.1848 27.1553C16.1048 26.5686 15.8515 26.062 15.4248 25.6353C14.9982 25.2086 14.3982 24.9953 13.6248 24.9953C13.2648 24.9953 12.9248 25.062 12.6048 25.1953C12.2848 25.3286 12.0048 25.522 11.7648 25.7753C11.5248 26.0153 11.3315 26.3153 11.1848 26.6753C11.0515 27.022 10.9848 27.4153 10.9848 27.8553V27.9753C10.9848 28.4153 11.0515 28.8086 11.1848 29.1553C11.3315 29.4886 11.5248 29.7686 11.7648 29.9953C12.0048 30.222 12.2848 30.3953 12.6048 30.5153C12.9248 30.622 13.2648 30.6753 13.6248 30.6753C14.3982 30.6753 14.9848 30.482 15.3848 30.0953C15.7982 29.7086 16.0648 29.1886 16.1848 28.5353L18.6648 29.1553Z" fill="#001E4C"/>
<path d="M22.5909 25.6753C22.5909 25.9953 22.7576 26.2286 23.0909 26.3753C23.4243 26.5086 24.0309 26.622 24.9109 26.7153C25.9243 26.822 26.7509 27.1286 27.3909 27.6353C28.0309 28.1286 28.3509 28.822 28.3509 29.7153V29.8353C28.3509 30.822 27.9909 31.6086 27.2709 32.1953C26.5509 32.782 25.5376 33.0753 24.2309 33.0753C23.4576 33.0753 22.7976 32.9753 22.2509 32.7753C21.7043 32.5753 21.2509 32.3286 20.8909 32.0353C20.5309 31.7286 20.2509 31.3953 20.0509 31.0353C19.8643 30.662 19.7376 30.302 19.6709 29.9553L21.9909 29.1953C22.0976 29.622 22.3176 29.9953 22.6509 30.3153C22.9976 30.6353 23.5243 30.7953 24.2309 30.7953C24.8576 30.7953 25.2843 30.702 25.5109 30.5153C25.7509 30.3153 25.8709 30.102 25.8709 29.8753C25.8709 29.742 25.8376 29.622 25.7709 29.5153C25.7176 29.3953 25.6109 29.2886 25.4509 29.1953C25.2909 29.0886 25.0709 29.002 24.7909 28.9353C24.5243 28.8686 24.1843 28.8153 23.7709 28.7753C22.6509 28.682 21.7576 28.3953 21.0909 27.9153C20.4376 27.422 20.1109 26.702 20.1109 25.7553V25.6353C20.1109 25.142 20.2176 24.7086 20.4309 24.3353C20.6443 23.962 20.9243 23.6486 21.2709 23.3953C21.6176 23.1286 22.0176 22.9286 22.4709 22.7953C22.9243 22.662 23.3909 22.5953 23.8709 22.5953C24.4976 22.5953 25.0376 22.6753 25.4909 22.8353C25.9576 22.982 26.3509 23.182 26.6709 23.4353C26.9909 23.6753 27.2509 23.9486 27.4509 24.2553C27.6509 24.5486 27.8043 24.8353 27.9109 25.1153L25.6309 26.0353C25.5109 25.6753 25.3043 25.3953 25.0109 25.1953C24.7176 24.982 24.3376 24.8753 23.8709 24.8753C23.4443 24.8753 23.1243 24.9553 22.9109 25.1153C22.6976 25.262 22.5909 25.4486 22.5909 25.6753Z" fill="#001E4C"/>
<path d="M28.997 22.8753H31.937V18.7953H34.457V22.8753H38.037V25.2753H34.457V29.7953C34.457 30.1953 34.637 30.3953 34.997 30.3953H37.677V32.7953H33.477C33.0237 32.7953 32.6504 32.6486 32.357 32.3553C32.077 32.062 31.937 31.6886 31.937 31.2353V25.2753H28.997V22.8753Z" fill="#001E4C"/>
<path d="M39.2231 22.8753H41.9431L44.2831 31.5953H44.6431L46.9831 22.8753H49.7031L46.8631 32.7953H42.0631L39.2231 22.8753Z" fill="#001E4C"/>
</svg>
