<svg width="36" height="36" viewBox="0 0 36 36" fill="none" xmlns="http://www.w3.org/2000/svg">
<path d="M3 3H33V21H27V24H33C34.6569 24 36 22.6569 36 21V3C36 1.34315 34.6569 0 33 0H3C1.34315 0 0 1.34315 0 3V21C0 22.6569 1.34315 24 3 24H9V21H3L3 3Z" fill="#001E4C"/>
<path d="M22.5 21H13.5C12.675 21 12 21.675 12 22.5V34.5C12 35.325 12.675 36 13.5 36H22.5C23.325 36 24 35.325 24 34.5V22.5C24 21.675 23.325 21 22.5 21ZM18 28.875C16.965 28.875 16.125 28.035 16.125 27C16.125 25.965 16.965 25.125 18 25.125C19.035 25.125 19.875 25.965 19.875 27C19.875 28.035 19.035 28.875 18 28.875Z" fill="#001E4C"/>
<path d="M11.73 17.73C12.255 18.255 13.08 18.3 13.68 17.88C14.895 17.01 16.395 16.5 18 16.5C19.605 16.5 21.105 17.01 22.32 17.865C22.92 18.285 23.745 18.255 24.27 17.73C24.915 17.085 24.855 16.005 24.135 15.48C22.41 14.235 20.295 13.5 18 13.5C15.705 13.5 13.59 14.235 11.865 15.48C11.13 16.005 11.085 17.085 11.73 17.73Z" fill="#001E4C"/>
<path d="M18.0004 7.5C14.0404 7.5 10.4104 8.895 7.57537 11.205C6.88537 11.775 6.82536 12.81 7.45536 13.44C7.99537 13.98 8.85037 14.025 9.43537 13.545C11.7604 11.655 14.7454 10.5 18.0004 10.5C21.2554 10.5 24.2404 11.655 26.5504 13.56C27.1354 14.04 27.9904 13.995 28.5304 13.455C29.1604 12.825 29.1004 11.79 28.4104 11.22C25.5904 8.895 21.9604 7.5 18.0004 7.5Z" fill="#001E4C"/>
</svg>
